# xmcd
#
# Track frame offsets:
#	150
#	17681
#	28743
#	38589
#	49756
#	65780
#	78560
#	90658
#	103308
#	115315
#	128040
#	139835
#	150785
#	167088
#	177984
#
# Disc length: 2544 seconds
#
# Revision: 0
# Processed by: cddbd v1.5.2PL0 Copyright (c) Steve Scherf et al.
# Submitted via: dBpowerAMP V4.0
#
DISCID=c309ee0f
DTITLE=Various Artist - Blues - Definitive Collection CD2 Blues Masters
DYEAR=1900
DGENRE=Blues
TTITLE0=Muddy Waters - Mannish Boy
TTITLE1=John Lee Hooker - Baby Please Don't Go
TTITLE2=John Mayall and The Bluesbreakers - I'm Your Witch Doctor
TTITLE3=Guitar Slim - Will I Done Got Over It
TTITLE4=Jimmy Reed - Cold and Lonesome
TTITLE5=Lowell Fulson - Rolling Blues
TTITLE6=Howlin' Wolf - Ain't Superstitious
TTITLE7=T-Bone Walker - Stormy Monday Blues
TTITLE8=Little Walter - My Babe
TTITLE9=Koko Taylor - Hi-Heel Sneakers
TTITLE10=Koko Taylor - I'm a Little Mixed Up
TTITLE11=Screamin' Jay Hawkins - I Put a Spell on You
TTITLE12=Memphis Slim - Blue and Disgusted
TTITLE13=Johnny Guitar Watson - Highway 60
TTITLE14=Robert Johnson - Ramblin' on My Mind
EXTD=
EXTT0=
EXTT1=
EXTT2=
EXTT3=
EXTT4=
EXTT5=
EXTT6=
EXTT7=
EXTT8=
EXTT9=
EXTT10=
EXTT11=
EXTT12=
EXTT13=
EXTT14=
PLAYORDER=
